<svg width="766" height="690" viewBox="0 0 766 690" fill="none" xmlns="http://www.w3.org/2000/svg">
<path d="M554.773 467.227C554.773 467.227 598.45 507.606 592.396 543.364C582.423 602.284 502.853 570.364 494.961 564.661C470.501 546.985 467.258 523.931 467.258 523.931" fill="#B5B5B6"/>
<path d="M378.864 545.273C378.864 545.273 377.35 577.004 349.89 587.707C311.619 602.626 292.835 566.815 290.078 557.841C281.051 528.462 292.781 503.164 292.781 503.164C294.564 499.57 296.186 494.678 295.916 490.813C295.456 484.056 289.943 479.839 272.375 491.515C248.428 507.462 236.914 516.948 221.86 521.84C213.968 524.408 189.292 526.976 171.102 514.192C155.129 502.975 150.318 481.731 155.183 467.515C160.048 453.298 193.238 455.298 193.238 455.298L194.994 460.136L195.643 486.191L232.374 492.488L278.429 449.406L309.781 457.758L324.16 478.137L306.619 529.76L353.809 550.084L378.864 545.246" fill="#B5B5B6"/>
<path d="M652.501 345.688C652.501 345.688 676.853 349.769 681.853 371.445C687.61 396.473 677.934 432.392 631.96 456.231C606.473 469.447 591.58 466.636 572.472 474.61C559.715 479.934 595.175 517.205 586.04 525.232C572.364 537.287 516.957 519.8 516.957 519.8L526.201 452.285L642.311 387.905L652.501 345.688Z" fill="#B5B5B6"/>
<path d="M628.415 320.62C628.415 320.62 666.983 309.161 661.983 276.187C655.226 231.672 569.629 203.212 519.331 231.699C509.439 237.294 460.113 265.592 460.113 265.592" fill="#B5B5B6"/>
<path d="M360.113 227.326C360.113 227.326 366.654 180.217 377.114 171.514C401.898 150.919 422.547 161.405 435.169 189.325C447.791 217.245 437.358 247.38 436.548 246.867" fill="#B5B5B6"/>
<path d="M82.5776 285.687C70.4962 288.85 44.4416 245.876 43.0631 206.523C42.1712 181.144 50.9552 168.306 55.1175 160.955C72.3341 130.711 118.47 91.5476 162.58 96.4126C233.446 104.224 263.474 189.874 256.933 195.983C252.96 199.712 234.852 174.496 193.121 161.279C159.471 150.603 106.794 146.549 92.0914 169.874C82.4155 185.226 97.5239 199.253 93.2806 247.66C91.6319 266.444 90.1184 283.768 82.6047 285.714L82.5776 285.687Z" fill="#B5B5B6"/>
</svg>
