<svg width="766" height="690" viewBox="0 0 766 690" fill="none" xmlns="http://www.w3.org/2000/svg">
<path d="M370.886 575.468C370.886 575.468 356.291 629.037 320.263 642.443C306.533 647.551 269.532 632.551 263.451 612.091C256.369 588.36 263.18 564.846 237.612 553.738C222.936 547.359 190.314 566.36 164.556 549.765C143.529 536.197 131.988 485.331 162.773 462.682C166.367 460.033 178.53 539.846 199.584 540.467C213.909 540.9 258.721 503.71 272.154 504.818C289.154 506.223 274.586 544.386 274.586 544.386" fill="#70706F"/>
<path d="M662.883 350.031C662.883 350.031 700.398 362.113 705.506 374.735C717.858 405.276 724.263 431.33 673.316 477.142C645.667 502.035 615.801 501.251 585.746 507.711C574.151 510.197 572.557 518.197 560.448 518.197C557.583 518.197 549.043 514.765 549.043 514.765L546.151 551.604L542.799 539.576L529.637 509.9L677.532 392.167L662.937 350.031H662.883Z" fill="#636462"/>
<path d="M451.824 162.957C451.824 162.957 461.662 181.173 457.797 211.498C456.31 223.255 456.878 232.364 462.932 235.526C468.986 238.688 491.095 234.202 499.366 227.553C507.636 220.904 548.772 199.741 548.772 199.741L559.745 193.147L559.935 202.309L539.61 211.607L520.42 224.553L489.879 244.932L464.067 255.04L452.527 252.04L446.337 241.959L446.905 201.498L443.445 184.606L451.77 162.93L451.824 162.957Z" fill="#70706F"/>
<path d="M669.85 285.362C669.85 285.362 726.365 179.386 604.983 173.954C579.577 172.819 536.414 212.198 536.414 212.198" fill="#70706F"/>
<path d="M370.492 165.196C370.492 165.196 383.655 128.547 403.169 131.087C481.171 141.169 448.872 216.089 448.872 216.089" fill="#70706F"/>
<path d="M55.9496 258.548C50.1117 259.062 29.922 189.871 52.3009 126.978C69.6797 78.1117 100.762 65.1384 118.843 52.4624C150.303 30.4348 189.791 35.516 220.873 67.1384C271.604 118.734 293.199 204.142 271.36 218.629C262.117 224.764 245.225 216.034 211.413 198.601C163.817 174.06 160.277 159.708 138.627 159.195C106.545 158.411 76.1934 189.033 64.4634 216.656C54.5442 239.98 59.1389 258.251 55.9496 258.548Z" fill="#70706F"/>
<path d="M592.451 499.508C592.451 499.508 676.237 557.455 582.018 605.997C523.692 636.052 478.691 549.806 478.691 549.806" fill="#636462"/>
</svg>
