<svg width="766" height="691" viewBox="0 0 766 691" fill="none" xmlns="http://www.w3.org/2000/svg">
<path d="M374.713 565.512C374.713 565.512 365.983 603.296 338.847 617.999C325.955 624.973 303.036 621.432 281.792 595.756C266.008 576.674 281.765 540.376 256.17 529.295C241.494 522.916 201.817 552.674 176.087 536.079C155.059 522.511 136.491 487.942 160.546 461.131C163.519 457.806 197.114 515.402 218.169 516.024C232.493 516.456 277.305 479.266 290.738 480.374C307.739 481.78 286.441 529.511 286.441 529.511" fill="#999999"/>
<path d="M665.907 351.469C665.907 351.469 689.258 360.739 691.88 374.118C698.34 407.335 699.664 434.255 654.528 466.12C627.068 485.526 597.824 485.148 578.715 493.121C566.201 498.337 552.742 502.094 541.714 509.446C524.66 520.824 512.605 535.365 512.605 535.365L515.633 495.959L655.852 398.064L665.907 351.469Z" fill="#999999"/>
<path d="M656.573 303.275C656.573 303.275 687.384 276.355 671.924 251.112C643.707 205.002 600.004 180.515 542.462 209.867C530.786 215.813 492.758 240.787 492.758 240.787" fill="#999999"/>
<path d="M364.355 204.033C364.355 204.033 366.491 154.546 384.626 145.978C395.762 140.707 403.87 141.356 415.924 146.491C473.655 171.032 447.547 241.25 447.547 241.25C447.547 241.25 448.385 253.413 461.006 253.359C473.628 253.305 494.142 239.818 494.142 239.818L519.548 232.412L464.493 265.548L441.222 270.792L395.005 211.033L369.869 189.303" fill="#999999"/>
<path d="M55.0432 245.32C37.6644 236.725 43.9619 175.399 44.7727 169.615C46.1511 159.885 53.0702 138.317 86.1251 101.019C109.207 74.9911 160.343 58.3421 199.128 79.9101C257.886 112.56 276.995 194.94 261.751 205.67C251.021 213.238 230.129 178.345 174.073 165.939C166.451 164.237 99.9092 150.209 78.7465 179.967C63.611 201.237 78.1519 235.806 62.4218 242.914C56.5568 245.59 55.5838 245.563 55.0703 245.293L55.0432 245.32Z" fill="#999999"/>
<path d="M547.466 504.335C547.466 504.335 601.36 495.659 610.63 540.688C612.9 551.661 614.981 585.878 555.791 594.175C510.465 600.527 480.113 552.039 480.113 552.039" fill="#999999"/>
</svg>
