<svg width="766" height="690" viewBox="0 0 766 690" fill="none" xmlns="http://www.w3.org/2000/svg">
<path d="M131.59 209.071C137.098 209.071 141.564 204.606 141.564 199.098C141.564 193.59 137.098 189.125 131.59 189.125C126.082 189.125 121.617 193.59 121.617 199.098C121.617 204.606 126.082 209.071 131.59 209.071Z" fill="#CFCFCE"/>
<path d="M114.973 237.384C120.481 237.384 124.946 232.919 124.946 227.411C124.946 221.903 120.481 217.438 114.973 217.438C109.465 217.438 105 221.903 105 227.411C105 232.919 109.465 237.384 114.973 237.384Z" fill="#CFCFCE"/>
<path d="M131.61 267.681C137.118 267.681 141.583 263.216 141.583 257.708C141.583 252.2 137.118 247.734 131.61 247.734C126.102 247.734 121.637 252.2 121.637 257.708C121.637 263.216 126.102 267.681 131.61 267.681Z" fill="#CFCFCE"/>
<path d="M167.274 268.337C172.782 268.337 177.247 263.872 177.247 258.364C177.247 252.856 172.782 248.391 167.274 248.391C161.766 248.391 157.301 252.856 157.301 258.364C157.301 263.872 161.766 268.337 167.274 268.337Z" fill="#CFCFCE"/>
<path d="M183.915 237.173C189.423 237.173 193.888 232.708 193.888 227.2C193.888 221.692 189.423 217.227 183.915 217.227C178.407 217.227 173.941 221.692 173.941 227.2C173.941 232.708 178.407 237.173 183.915 237.173Z" fill="#CFCFCE"/>
<path d="M166.43 207.946C171.938 207.946 176.403 203.481 176.403 197.973C176.403 192.465 171.938 188 166.43 188C160.922 188 156.457 192.465 156.457 197.973C156.457 203.481 160.922 207.946 166.43 207.946Z" fill="#CFCFCE"/>
<path d="M325.872 270.681C331.38 270.681 335.845 266.216 335.845 260.708C335.845 255.2 331.38 250.734 325.872 250.734C320.364 250.734 315.898 255.2 315.898 260.708C315.898 266.216 320.364 270.681 325.872 270.681Z" fill="#CFCFCE"/>
<path d="M307.606 297.923C313.114 297.923 317.579 293.458 317.579 287.95C317.579 282.442 313.114 277.977 307.606 277.977C302.098 277.977 297.633 282.442 297.633 287.95C297.633 293.458 302.098 297.923 307.606 297.923Z" fill="#CFCFCE"/>
<path d="M320.317 327.634C325.825 327.634 330.29 323.169 330.29 317.661C330.29 312.153 325.825 307.688 320.317 307.688C314.809 307.688 310.344 312.153 310.344 317.661C310.344 323.169 314.809 327.634 320.317 327.634Z" fill="#CFCFCE"/>
<path d="M356.321 332.892C361.829 332.892 366.294 328.427 366.294 322.919C366.294 317.41 361.829 312.945 356.321 312.945C350.813 312.945 346.348 317.41 346.348 322.919C346.348 328.427 350.813 332.892 356.321 332.892Z" fill="#CFCFCE"/>
<path d="M378.915 302.634C384.423 302.634 388.888 298.169 388.888 292.661C388.888 287.153 384.423 282.688 378.915 282.688C373.407 282.688 368.941 287.153 368.941 292.661C368.941 298.169 373.407 302.634 378.915 302.634Z" fill="#CFCFCE"/>
<path d="M361.622 269.353C367.13 269.353 371.595 264.888 371.595 259.379C371.595 253.871 367.13 249.406 361.622 249.406C356.114 249.406 351.648 253.871 351.648 259.379C351.648 264.888 356.114 269.353 361.622 269.353Z" fill="#CFCFCE"/>
<path d="M554.942 337.618C560.45 337.618 564.915 333.153 564.915 327.645C564.915 322.137 560.45 317.672 554.942 317.672C549.434 317.672 544.969 322.137 544.969 327.645C544.969 333.153 549.434 337.618 554.942 337.618Z" fill="#CFCFCE"/>
<path d="M538.344 365.939C543.852 365.939 548.317 361.473 548.317 355.965C548.317 350.457 543.852 345.992 538.344 345.992C532.836 345.992 528.371 350.457 528.371 355.965C528.371 361.473 532.836 365.939 538.344 365.939Z" fill="#CFCFCE"/>
<path d="M554.981 396.235C560.489 396.235 564.954 391.77 564.954 386.262C564.954 380.754 560.489 376.289 554.981 376.289C549.473 376.289 545.008 380.754 545.008 386.262C545.008 391.77 549.473 396.235 554.981 396.235Z" fill="#CFCFCE"/>
<path d="M590.606 396.853C596.114 396.853 600.579 392.388 600.579 386.879C600.579 381.371 596.114 376.906 590.606 376.906C585.098 376.906 580.633 381.371 580.633 386.879C580.633 392.388 585.098 396.853 590.606 396.853Z" fill="#CFCFCE"/>
<path d="M607.266 365.704C612.774 365.704 617.239 361.239 617.239 355.731C617.239 350.223 612.774 345.758 607.266 345.758C601.758 345.758 597.293 350.223 597.293 355.731C597.293 361.239 601.758 365.704 607.266 365.704Z" fill="#CFCFCE"/>
<path d="M589.801 336.478C595.309 336.478 599.775 332.013 599.775 326.504C599.775 320.996 595.309 316.531 589.801 316.531C584.293 316.531 579.828 320.996 579.828 326.504C579.828 332.013 584.293 336.478 589.801 336.478Z" fill="#CFCFCE"/>
<path d="M395.258 449.775C400.766 449.775 405.232 445.309 405.232 439.801C405.232 434.293 400.766 429.828 395.258 429.828C389.75 429.828 385.285 434.293 385.285 439.801C385.285 445.309 389.75 449.775 395.258 449.775Z" fill="#CFCFCE"/>
<path d="M377.965 475.54C383.473 475.54 387.939 471.075 387.939 465.567C387.939 460.059 383.473 455.594 377.965 455.594C372.457 455.594 367.992 460.059 367.992 465.567C367.992 471.075 372.457 475.54 377.965 475.54Z" fill="#CFCFCE"/>
<path d="M391.84 506.134C397.348 506.134 401.814 501.669 401.814 496.161C401.814 490.653 397.348 486.188 391.84 486.188C386.332 486.188 381.867 490.653 381.867 496.161C381.867 501.669 386.332 506.134 391.84 506.134Z" fill="#CFCFCE"/>
<path d="M447.583 481.853C453.091 481.853 457.556 477.388 457.556 471.879C457.556 466.371 453.091 461.906 447.583 461.906C442.075 461.906 437.609 466.371 437.609 471.879C437.609 477.388 442.075 481.853 447.583 481.853Z" fill="#CFCFCE"/>
<path d="M424.102 511.392C429.61 511.392 434.075 506.927 434.075 501.419C434.075 495.91 429.61 491.445 424.102 491.445C418.594 491.445 414.129 495.91 414.129 501.419C414.129 506.927 418.594 511.392 424.102 511.392Z" fill="#CFCFCE"/>
<path d="M430.098 448.642C435.606 448.642 440.071 444.177 440.071 438.669C440.071 433.16 435.606 428.695 430.098 428.695C424.59 428.695 420.125 433.16 420.125 438.669C420.125 444.177 424.59 448.642 430.098 448.642Z" fill="#CFCFCE"/>
<path d="M178.52 392.181C184.028 392.181 188.493 387.716 188.493 382.208C188.493 376.7 184.028 372.234 178.52 372.234C173.012 372.234 168.547 376.7 168.547 382.208C168.547 387.716 173.012 392.181 178.52 392.181Z" fill="#CFCFCE"/>
<path d="M161.922 420.517C167.43 420.517 171.896 416.052 171.896 410.544C171.896 405.035 167.43 400.57 161.922 400.57C156.414 400.57 151.949 405.035 151.949 410.544C151.949 416.052 156.414 420.517 161.922 420.517Z" fill="#CFCFCE"/>
<path d="M178.544 450.814C184.052 450.814 188.517 446.348 188.517 440.84C188.517 435.332 184.052 430.867 178.544 430.867C173.035 430.867 168.57 435.332 168.57 440.84C168.57 446.348 173.035 450.814 178.544 450.814Z" fill="#CFCFCE"/>
<path d="M214.184 451.446C219.692 451.446 224.157 446.981 224.157 441.473C224.157 435.965 219.692 431.5 214.184 431.5C208.676 431.5 204.211 435.965 204.211 441.473C204.211 446.981 208.676 451.446 214.184 451.446Z" fill="#CFCFCE"/>
<path d="M230.844 420.259C236.352 420.259 240.818 415.794 240.818 410.286C240.818 404.778 236.352 400.312 230.844 400.312C225.336 400.312 220.871 404.778 220.871 410.286C220.871 415.794 225.336 420.259 230.844 420.259Z" fill="#CFCFCE"/>
<path d="M213.383 391.056C218.891 391.056 223.357 386.591 223.357 381.083C223.357 375.575 218.891 371.109 213.383 371.109C207.875 371.109 203.41 375.575 203.41 381.083C203.41 386.591 207.875 391.056 213.383 391.056Z" fill="#CFCFCE"/>
</svg>
