<svg width="766" height="690" viewBox="0 0 766 690" fill="none" xmlns="http://www.w3.org/2000/svg">
<path d="M197.226 458.296C222.706 458.296 243.362 437.64 243.362 412.16C243.362 386.679 222.706 366.023 197.226 366.023C171.746 366.023 151.09 386.679 151.09 412.16C151.09 437.64 171.746 458.296 197.226 458.296Z" fill="#FFFEFF"/>
<path d="M573.226 401.991C598.706 401.991 619.362 381.335 619.362 355.855C619.362 330.375 598.706 309.719 573.226 309.719C547.746 309.719 527.09 330.375 527.09 355.855C527.09 381.335 547.746 401.991 573.226 401.991Z" fill="#FFFEFF"/>
<path d="M413.226 514.296C438.706 514.296 459.362 493.64 459.362 468.16C459.362 442.679 438.706 422.023 413.226 422.023C387.746 422.023 367.09 442.679 367.09 468.16C367.09 493.64 387.746 514.296 413.226 514.296Z" fill="#FFFEFF"/>
<path d="M149.136 275.273C174.617 275.273 195.273 254.617 195.273 229.136C195.273 203.656 174.617 183 149.136 183C123.656 183 103 203.656 103 229.136C103 254.617 123.656 275.273 149.136 275.273Z" fill="#FFFEFF"/>
<path d="M343.226 336.296C368.706 336.296 389.362 315.64 389.362 290.16C389.362 264.679 368.706 244.023 343.226 244.023C317.746 244.023 297.09 264.679 297.09 290.16C297.09 315.64 317.746 336.296 343.226 336.296Z" fill="#FFFEFF"/>
</svg>
