<svg width="766" height="690" viewBox="0 0 766 690" fill="none" xmlns="http://www.w3.org/2000/svg">
<path d="M668.52 360.248C666.115 353.248 652.492 339.113 633.627 347.816C627.411 350.681 623.384 354.41 620.357 358.573C620.167 362.357 619.546 366.194 618.357 369.978C610.735 394.303 584.842 407.817 560.517 400.195C536.192 392.573 522.679 366.681 530.3 342.356C537.922 318.031 563.815 304.517 588.14 312.139C597.059 314.95 604.518 320.22 610.032 326.977C622.222 328.248 636.573 315.382 641.627 303.869C654.952 273.679 618.14 254.651 606.708 250.975C584.896 242.948 559.112 241.191 535.138 244.381C510.138 247.705 502.975 250.381 482.651 259.868C457.272 271.706 437.217 266.597 435.271 236.921C433.514 209.974 425.919 201.704 422.325 196.434C413.514 183.514 390.729 180.217 377.594 192.947C364.756 205.407 354.188 241.678 359.648 245.948C371.188 254.976 380.486 263.354 381.216 264.462C399.351 291.517 382.27 339.167 338.782 336.194C321.89 335.032 309.43 325.518 302.808 314.193C292.322 296.328 295.187 274.111 306.43 261.192C307.971 259.435 314.673 251.435 319.701 249.813C340.701 242.948 327.647 200.028 297.565 196.812C276.7 194.569 250.537 203.677 242.672 187.352C221.833 144.054 185.589 122.918 148.264 125.162C29.6665 132.297 38.2343 243.11 64.0728 273.679C78.7488 291.03 116.506 299.869 109.209 338.005C105.695 356.356 66.7215 383.438 79.2083 419.358C82.803 429.737 109.939 459.386 141.967 446.223C163.102 437.548 140.912 413.385 158.372 387.168C186.67 344.707 245.347 370.357 244.429 413.412C243.861 440.007 219.32 458.44 181.562 452.143C155.913 447.845 141.94 486.387 170.886 499.819C234.969 529.523 267.699 450.494 300.295 465.224C303.268 466.575 307.133 469.548 309.241 472.63C323.106 492.657 303.538 499.9 300.727 526.955C298.457 548.794 302.943 554.199 314.43 562.659C323.566 569.389 339.566 572.091 349.539 569.821C365.972 566.091 403.703 514.955 388.486 504.441C370.323 491.9 363.188 470.981 370.08 453.034C379.216 429.25 403.595 415.196 427.919 422.817C452.244 430.439 463.11 468.765 456.109 479.062C451.136 486.414 445.92 494.738 446.244 497.765C446.92 504.36 483.84 542.983 488.299 547.82C499.759 560.226 544.733 563.794 554.923 559.334C569.626 552.902 585.977 522.982 560.68 492.225C486.867 402.601 611.681 485.143 658.547 412.628C662.439 406.601 666.79 400.33 669.223 391.952C672.061 382.087 672.925 373.195 668.52 360.357V360.248ZM668.52 360.248C666.115 353.248 652.492 339.113 633.627 347.816C627.411 350.681 623.384 354.41 620.357 358.573C620.167 362.357 619.546 366.194 618.357 369.978C610.735 394.303 584.842 407.817 560.517 400.195C536.192 392.573 522.679 366.681 530.3 342.356C537.922 318.031 563.815 304.517 588.14 312.139C597.059 314.95 604.518 320.22 610.032 326.977C622.222 328.248 636.573 315.382 641.627 303.869C654.952 273.679 618.14 254.651 606.708 250.975C584.896 242.948 559.112 241.191 535.138 244.381C510.138 247.705 502.975 250.381 482.651 259.868C457.272 271.706 437.217 266.597 435.271 236.921C433.514 209.974 425.919 201.704 422.325 196.434C413.514 183.514 390.729 180.217 377.594 192.947C364.756 205.407 354.188 241.678 359.648 245.948C371.188 254.976 380.486 263.354 381.216 264.462C399.351 291.517 382.27 339.167 338.782 336.194C321.89 335.032 309.43 325.518 302.808 314.193C292.322 296.328 295.187 274.111 306.43 261.192C307.971 259.435 314.673 251.435 319.701 249.813C340.701 242.948 327.647 200.028 297.565 196.812C276.7 194.569 250.537 203.677 242.672 187.352C221.833 144.054 185.589 122.918 148.264 125.162C29.6665 132.297 38.2343 243.11 64.0728 273.679C78.7488 291.03 116.506 299.869 109.209 338.005C105.695 356.356 66.7215 383.438 79.2083 419.358C82.803 429.737 109.939 459.386 141.967 446.223C163.102 437.548 140.912 413.385 158.372 387.168C186.67 344.707 245.347 370.357 244.429 413.412C243.861 440.007 219.32 458.44 181.562 452.143C155.913 447.845 141.94 486.387 170.886 499.819C234.969 529.523 267.699 450.494 300.295 465.224C303.268 466.575 307.133 469.548 309.241 472.63C323.106 492.657 303.538 499.9 300.727 526.955C298.457 548.794 302.943 554.199 314.43 562.659C323.566 569.389 339.566 572.091 349.539 569.821C365.972 566.091 403.703 514.955 388.486 504.441C370.323 491.9 363.188 470.981 370.08 453.034C379.216 429.25 403.595 415.196 427.919 422.817C452.244 430.439 463.11 468.765 456.109 479.062C451.136 486.414 445.92 494.738 446.244 497.765C446.92 504.36 483.84 542.983 488.299 547.82C499.759 560.226 544.733 563.794 554.923 559.334C569.626 552.902 585.977 522.982 560.68 492.225C486.867 402.601 611.681 485.143 658.547 412.628C662.439 406.601 666.79 400.33 669.223 391.952C672.061 382.087 672.925 373.195 668.52 360.357V360.248ZM135.372 272.922C111.047 265.3 97.5331 239.408 105.155 215.083C112.777 190.758 138.669 177.244 162.994 184.866C187.319 192.488 200.833 218.38 193.211 242.705C185.589 267.03 159.697 280.544 135.372 272.922Z" fill="#D3D3D3"/>
</svg>
